<?xml version="1.0" standalone="no"?><!DOCTYPE svg PUBLIC "-//W3C//DTD SVG 1.1//EN" "http://www.w3.org/Graphics/SVG/1.1/DTD/svg11.dtd"><svg class="icon" width="16px" height="16.00px" viewBox="0 0 1024 1024" version="1.1" xmlns="http://www.w3.org/2000/svg"><path d="M858.9312 860.16H165.0688C107.9296 860.16 61.44 813.6704 61.44 756.5312V267.4688C61.44 210.3296 107.9296 163.84 165.0688 163.84h693.8624C916.0704 163.84 962.56 210.3296 962.56 267.4688v489.0624c0 57.1392-46.4896 103.6288-103.6288 103.6288zM165.0688 204.8A62.6688 62.6688 0 0 0 102.4 267.4688v489.0624A62.6688 62.6688 0 0 0 165.0688 819.2h693.8624A62.6688 62.6688 0 0 0 921.6 756.5312V267.4688A62.6688 62.6688 0 0 0 858.9312 204.8H165.0688z"  /><path d="M942.08 373.3504H81.92a20.80768 20.80768 0 0 1 0-41.5744h860.16a20.80768 20.80768 0 0 1 0 41.5744zM639.3856 742.6048H384.6144c-14.9504 0-28.4672-7.7824-35.84-20.8896-7.3728-13.1072-7.3728-28.672 0.4096-41.5744l127.3856-215.2448c7.5776-12.6976 20.8896-20.2752 35.6352-20.2752s28.0576 7.5776 35.6352 20.2752l127.3856 215.2448c7.5776 12.9024 7.7824 28.4672 0.4096 41.5744-7.7824 13.1072-21.2992 20.8896-36.2496 20.8896zM512 486.1952l-127.1808 215.2448 254.5664-0.2048L512 486.1952z m-17.8176-10.6496z"  /><path d="M778.24 270.5408m-20.48 0a20.48 20.48 0 1 0 40.96 0 20.48 20.48 0 1 0-40.96 0Z"  /><path d="M839.68 270.5408m-20.48 0a20.48 20.48 0 1 0 40.96 0 20.48 20.48 0 1 0-40.96 0Z"  /><path d="M716.8 270.5408m-20.48 0a20.48 20.48 0 1 0 40.96 0 20.48 20.48 0 1 0-40.96 0Z"  /></svg>